<svg width="61" height="61" viewBox="0 0 61 61" fill="none" xmlns="http://www.w3.org/2000/svg">
<g clip-path="url(#clip0_36_210)">
<path d="M3.00474 0.0106453C3.00474 0.244841 2.99408 0.404521 3.00474 0.564199C3.40969 4.99264 3.81464 9.42107 4.20893 13.8602C4.76308 20.1408 5.30656 26.4215 5.86071 32.6917C6.48945 39.7388 7.12884 46.7753 7.73628 53.8225C7.7789 54.3335 7.96006 54.557 8.43961 54.6848C15.2598 56.5583 22.0587 58.4425 28.879 60.3054C29.3372 60.4332 29.8913 60.4545 30.3496 60.3268C37.1912 58.4532 44.022 56.5477 50.8636 54.6635C51.3857 54.5144 51.5669 54.2802 51.6095 53.748C51.8227 51.0867 52.0784 48.4147 52.3129 45.7534C52.7071 41.3463 53.0909 36.9391 53.4851 32.532C53.9434 27.3583 54.4123 22.1954 54.8705 17.0217C55.2115 13.1682 55.5739 9.32525 55.9149 5.47167C56.0747 3.66197 56.2132 1.85228 56.3624 0H3.00474V0.0106453ZM46.0682 15.3825C45.7165 19.2786 45.3648 23.1854 45.0131 27.0815C44.6082 31.5633 44.2032 36.0449 43.7983 40.5159C43.681 41.804 43.5105 43.0921 43.4785 44.3908C43.4573 45.0827 43.1589 45.2637 42.5834 45.4234C38.4699 46.5305 34.3672 47.6695 30.2644 48.798C30.0832 48.8511 29.9127 48.9151 29.7315 48.9682C29.6676 48.9363 29.6036 48.9151 29.5291 48.883C25.1385 47.6908 20.748 46.4879 16.3574 45.2743C16.1763 45.2211 15.9418 44.9337 15.9206 44.7314C15.6115 41.4101 15.3344 38.0888 15.036 34.7036H21.7391C21.8563 36.0343 21.9842 37.3862 22.0908 38.7488C22.1866 40.0049 22.176 40.0049 23.3589 40.3243C25.4795 40.8884 27.6109 41.442 29.7315 41.9956L29.7102 41.9423C32.0333 41.3249 34.3565 40.7182 36.6796 40.0582C36.8928 39.9943 37.1379 39.6536 37.1698 39.4194C37.3084 38.3975 37.3829 37.3649 37.4682 36.343C37.6067 34.6929 37.7453 33.043 37.8944 31.3184H29.7102L29.7315 31.2758C29.6782 31.2758 29.6143 31.2758 29.561 31.2758H14.7271C14.5245 29.0722 14.3327 26.8899 14.1303 24.6438H29.5717C29.625 24.6438 29.6889 24.6438 29.7422 24.6438L29.7208 24.6012H38.4913C38.6938 22.3125 38.8962 20.077 39.0987 17.7989H29.7102L29.7315 17.7563C29.6782 17.7563 29.6143 17.7563 29.561 17.7563C24.3073 17.7669 19.0536 17.7669 13.7999 17.7776C13.7253 17.7776 13.6507 17.7457 13.5122 17.7031C13.3203 15.5315 13.1178 13.3598 12.9261 11.1243H29.561C29.6143 11.1243 29.6782 11.1243 29.7315 11.1243L29.7102 11.0817H46.4197C46.3025 12.5721 46.1854 13.9773 46.0682 15.3825Z" fill="white"/>
</g>
<defs>
<clipPath id="clip0_36_210">
<rect width="60.3833" height="60.4126" fill="white"/>
</clipPath>
</defs>
</svg>
