<svg width="61" height="60" viewBox="0 0 61 60" fill="none" xmlns="http://www.w3.org/2000/svg">
<g clip-path="url(#clip0_36_200)">
<path d="M59.2689 27.2219L33.1672 1.12004C31.6738 -0.373346 29.2064 -0.373346 27.713 1.12004L22.3238 6.50921L29.2065 13.3918C30.8297 12.8724 32.6478 13.1969 33.8814 14.4956C35.18 15.7942 35.5047 17.6122 34.9852 19.2355L41.608 25.8583C43.2313 25.3388 45.0493 25.6635 46.3479 26.9621C48.166 28.7152 48.166 31.6371 46.3479 33.455C44.5299 35.2731 41.673 35.2731 39.8549 33.455C38.4914 32.0915 38.1667 30.1436 38.881 28.4555L32.7127 22.2871V38.5196C33.1672 38.7144 33.5568 39.0391 33.9463 39.3636C35.7644 41.1168 35.7644 44.0387 33.9463 45.8566C32.1283 47.6098 29.2714 47.6098 27.4533 45.8566C25.6353 44.0387 25.6353 41.1817 27.4533 39.3636C27.9079 38.9092 28.4273 38.5845 28.9467 38.3898V21.9625C28.4273 21.7677 27.9079 21.3781 27.4533 20.9886C26.0898 19.6251 25.7651 17.6771 26.4794 15.9889L19.6618 9.23626L1.80607 27.092C0.31269 28.5854 0.31269 31.0527 1.80607 32.5461L27.8429 58.5829C29.3363 60.0763 31.8037 60.0763 33.297 58.5829L59.204 32.6759C60.7623 31.1176 60.7623 28.7152 59.2689 27.2219Z" fill="white"/>
</g>
<defs>
<clipPath id="clip0_36_200">
<rect width="60.698" height="59.7029" fill="white"/>
</clipPath>
</defs>
</svg>
