<svg width="59" height="64" viewBox="0 0 59 64" fill="none" xmlns="http://www.w3.org/2000/svg">
<g clip-path="url(#clip0_36_174)">
<path d="M9.42665 28.0742C7.48016 28.9342 2.32829 32.8055 1.33603 33.9525C0.305543 35.0995 0.000331541 33.3074 1.06885 30.3323C1.90823 27.9308 4.04564 24.6689 7.63286 21.8732C9.73168 20.2603 14.3496 17.9305 17.1735 16.5683C17.746 16.2815 25.1496 13.3423 31.7518 11.8728C32.3244 11.7294 31.065 12.7688 30.8741 13.3423C29.8818 16.0664 10.0751 27.7515 10.0751 27.7515L9.42665 28.0742ZM37.3236 60.9427C37.667 62.8783 37.3618 63.0217 35.2248 63.2726C33.0875 63.5236 31.5229 62.7708 30.9505 62.2691C30.3779 61.767 30.2636 60.6561 30.836 59.6525C31.1796 59.0072 31.5231 58.7922 31.714 58.0036C31.9047 57.251 32.0574 57.0717 32.2099 56.785C32.3625 56.5339 32.4009 56.2829 32.4389 54.5267C32.4771 52.7705 32.4389 49.4727 32.6298 48.075C32.8207 46.6413 39.423 48.7201 39.423 48.7201C39.423 48.7201 37.8581 52.3761 37.4384 53.2722C37.0186 54.1684 37.0568 55.8888 37.0568 56.2472C37.0568 56.6057 36.9043 57.3224 36.7896 57.3583C36.6751 57.394 37.1713 58.326 36.9421 58.8638C36.7894 59.3657 37.2856 60.6561 37.3236 60.9427ZM39.8425 6.13777C39.6133 4.77573 39.8425 2.08719 40.1477 1.65729C41.1019 0.438487 46.1393 0.295244 47.208 1.72891C47.6659 2.37403 47.6277 3.87949 47.5514 4.84735C47.4752 5.81504 47.208 7.894 47.1698 8.5752C47.1318 9.07707 41.598 9.86544 40.3768 8.5034C40.0332 8.14511 39.8425 6.13777 39.8425 6.13777ZM51.0624 57.4658C53.3904 59.0431 55.184 59.3298 56.367 59.9033C57.55 60.4769 57.2447 61.588 55.2602 61.9106C53.6573 62.1973 51.1387 61.6238 49.4595 61.6238C47.7804 61.6238 44.0403 61.8031 43.048 61.158C41.9033 60.4053 42.3992 59.0072 42.3992 59.0072C42.7046 58.2188 43.4677 56.4623 43.2388 55.0286C43.0098 53.5949 42.7044 52.8064 42.132 51.4801C41.5596 50.1539 41.1399 46.8922 41.6743 46.7129C42.2087 46.5336 42.0558 46.7129 42.7428 46.8562C43.4297 46.9994 44.193 47.2146 45.6814 47.2146C47.1698 47.2146 48.8107 46.9994 49.3833 46.8921C49.9557 46.7845 50.4136 46.6768 50.2226 47.7881C50.0319 48.8992 49.4595 50.9782 49.4213 52.5912C49.3833 54.2042 49.3833 56.0681 49.4977 56.3906C49.612 56.7132 50.4518 57.0717 51.0624 57.4658Z" fill="#010101"/>
<path d="M42.8953 9.72194C38.6975 13.1272 30.5687 14.059 18.5094 18.432C15.4181 19.5431 7.17496 22.8766 5.19043 26.3535C11.8689 22.7333 14.3496 27.7155 14.8837 32.8411C15.3797 37.6442 17.9368 40.1534 24.5008 40.0098C31.2557 39.8666 33.3165 43.5583 35.1864 47.8956C38.8118 31.2998 44.6127 28.074 48.3524 25.2424C56.2905 19.1846 46.5208 8.50314 42.8953 9.72194Z" fill="#F0EFEF"/>
<path d="M42.8949 9.72217C32.82 13.0198 22.8593 13.8442 11.1434 20.6187C8.35756 22.2317 2.48041 25.8875 1.33545 32.8772C5.60953 28.4325 15.4938 22.8411 27.5915 19.2925C33.6976 17.5002 38.1628 16.3175 43.5818 14.3461C43.2003 12.0519 43.2003 11.1558 42.8949 9.72217Z" fill="#F0EFEF"/>
<path d="M55.7561 29.3642C55.7561 29.3642 55.031 31.6941 53.5808 32.4469C53.5808 32.4469 52.5123 32.8054 50.3752 31.6943C49.7646 31.3717 49.3067 30.2606 49.3447 29.902C49.383 29.0417 49.9554 28.6475 49.9554 28.6475C49.9554 28.6475 50.5662 27.6796 51.2911 27.7155C52.0163 27.7512 53.2375 27.8588 53.6192 27.5362C53.9624 27.1777 55.8325 28.1813 55.7561 29.3642ZM40.1856 6.81855C40.1856 6.81855 40.0331 8.64675 39.7659 9.79357C39.7277 10.0088 38.5829 10.1161 37.7432 10.4389C39.346 14.74 49.0013 14.7041 50.2608 12.5895C49.6501 12.1953 48.4289 11.5859 47.8565 11.3708C47.284 11.1556 47.3222 11.1915 47.284 10.1879C47.2459 9.18417 47.1695 7.32043 47.093 6.81855C47.0168 6.31667 41.1014 6.31667 40.1856 6.81855Z" fill="#010101"/>
<path d="M40.5671 6.81878C40.5671 6.81878 40.5671 7.85826 40.4526 8.86185C40.4146 9.32783 40.3764 9.61449 40.3001 9.97295C40.2619 10.1882 41.5976 11.0482 41.9793 12.948C43.8111 16.7832 48.0473 14.8835 49.8027 13.0555C49.1921 12.6611 48.1998 12.1235 47.0551 11.6935C46.4825 11.4782 46.7497 11.0124 46.7116 10.0088C46.6734 9.00527 46.5207 7.53553 46.4444 6.99792C46.3678 6.46032 41.4831 6.3169 40.5671 6.81878Z" fill="#F0EFEF"/>
<path d="M40.1852 6.81855C40.1852 6.81855 40.147 7.46385 40.0327 8.21649C40.5287 8.68229 41.1775 9.32759 41.6738 9.72195C42.0172 10.0088 42.8566 9.97289 43.6201 9.97289C44.307 9.97289 44.9176 10.0445 45.1848 9.90127C45.7956 9.61443 46.6732 8.89769 47.1693 8.35991C47.1313 7.71479 47.093 7.10539 47.055 6.81855C47.0164 6.31667 41.101 6.31667 40.1852 6.81855Z" fill="#010101"/>
<path d="M43.6589 9.54265C43.2008 9.54265 42.6665 9.50693 42.2468 9.43513C42.0559 9.39941 41.8651 9.29189 41.7124 9.22009C41.4453 9.04077 41.1781 8.82591 40.8731 8.61069C40.2623 8.18061 40.2242 7.92967 40.2242 7.82232C40.4914 5.56404 40.1478 3.6644 40.1478 3.6644C40.1478 3.6644 39.8806 2.69654 41.3308 2.4456C42.781 2.19466 43.6587 2.15894 43.6587 2.15894C43.6587 2.15894 44.5748 2.15894 45.9867 2.4456C47.4369 2.69654 47.1697 3.6644 47.1697 3.6644C47.1697 3.6644 46.8263 5.56404 47.0935 7.82232C47.0935 7.92967 47.0554 8.18061 46.4446 8.61069C45.9103 8.96915 45.4906 9.36333 45.0709 9.43513C44.651 9.50693 44.1167 9.54265 43.6589 9.54265Z" fill="#010101"/>
<path d="M43.6585 1.22705C41.1398 1.22705 40.6435 1.87217 39.9184 2.58909C39.7659 2.76824 39.8802 3.84362 40.1476 6.13762H40.491C40.491 6.13762 40.2618 5.49232 40.3001 4.73968C40.3383 3.98704 40.491 4.02293 40.3763 3.84362C40.2238 3.6284 39.9184 3.26994 40.6055 2.91165C41.2923 2.55319 42.3609 3.19832 43.6585 3.23422C44.956 3.19832 46.0627 2.55319 46.7496 2.91165C47.4365 3.26994 47.1313 3.6284 46.9787 3.84362C46.826 4.05866 47.0168 3.98686 47.055 4.73968C47.093 5.49232 46.8641 6.13762 46.8641 6.13762H47.2075C47.4365 3.84362 47.5892 2.84003 47.4747 2.66072C46.8259 1.87217 46.1772 1.26277 43.6585 1.22705ZM55.756 29.4718C55.756 29.4718 55.031 31.6583 53.619 32.411C53.3136 32.2677 53.3518 32.0527 53.0847 31.7299C53.0082 31.6226 52.741 31.5506 52.6267 31.4433C52.5123 31.3358 52.5505 31.1564 52.3596 31.0132C52.2069 30.8698 52.0924 30.9773 51.9397 30.8698C51.7872 30.7265 51.7488 30.5472 51.6345 30.4399C51.558 30.3681 51.2528 30.3324 51.1766 30.2606C50.9856 30.0812 49.3067 29.7587 49.383 29.4002C49.5355 28.8624 49.8409 28.4683 49.8409 28.4683C49.8409 28.4683 50.566 27.4647 51.2909 27.5004C52.0159 27.5363 52.703 27.6797 53.0847 27.3572C53.5045 26.9985 55.8707 28.3248 55.756 29.4718Z" fill="#010101"/>
<path d="M50.7946 13.629C50.7946 13.629 53.1988 13.0912 54.8399 14.5609C56.481 16.0664 56.3664 17.9302 55.8704 19.0772C56.2901 19.5431 57.0534 20.8334 56.481 22.3747C58.9997 24.3819 57.893 27.4646 55.6415 29.5077C55.6415 29.5077 55.1071 27.6438 52.9701 27.5362C53.0463 26.8195 50.9855 26.2458 51.9396 24.3819C50.4894 24.0593 50.5276 23.1274 50.2987 21.9806C50.1077 20.8334 50.7946 13.629 50.7946 13.629Z" fill="#010101"/>
<path d="M49.9173 14.6327C49.9173 14.6327 52.7032 13.3065 54.3443 14.812C55.9852 16.3175 55.5271 17.9662 55.0312 19.1132C55.4508 19.579 56.4431 20.9055 55.8325 22.4824C55.718 22.8408 54.8784 22.8408 54.2677 23.7728C55.7941 22.9482 56.7483 23.1634 57.0917 24.2027C57.6261 25.8157 56.4429 27.7512 55.4126 28.8266C55.4126 28.7907 55.3744 28.7548 55.3744 28.7191C55.2219 29.2569 55.031 30.2962 53.8862 31.4432C53.3136 32.0167 52.8557 31.945 52.2069 31.8016C51.4437 31.6223 51.1766 31.2996 50.1081 30.7621C49.4974 30.4396 49.8409 30.0452 49.8409 29.7227C49.8409 29.651 49.9171 29.5433 50.0318 29.4001C50.108 29.2208 50.337 28.9343 50.6804 28.6116C50.6804 28.6116 51.1766 27.9664 51.9018 28.0022C52.6269 28.0381 53.3901 27.8948 53.581 27.7155C53.581 26.461 52.0545 26.4251 52.5887 24.2745C52.6269 24.167 52.8179 23.9877 53.4283 23.916C52.5123 23.7367 52.0926 23.7008 51.4437 23.1275C50.9858 22.7333 50.6424 22.2314 50.5277 21.5863C50.299 20.4752 49.9173 14.6327 49.9173 14.6327Z" fill="#F0EFEF"/>
<path d="M41.8649 12.3745C41.636 12.0877 40.453 10.654 38.2013 10.0805C37.5525 9.9012 37.1328 10.4031 36.4841 10.7615C36.2932 10.654 35.4536 10.2956 34.9957 10.5463C34.5378 10.7971 34.2326 11.0482 33.7745 11.2273C33.5454 11.1198 32.9349 11.1198 32.4388 11.299C31.9427 11.4424 31.1794 11.7649 30.4543 12.6969C29.9964 14.2383 38.5447 13.0911 38.5447 13.0911L41.8649 12.3745Z" fill="#010101"/>
<path d="M41.9411 12.3746C40.7197 11.9802 40.9107 10.6541 38.201 10.4391C37.6667 10.4032 37.3233 10.7973 36.9416 11.0483C37.1325 11.2276 37.3233 11.5143 37.4377 11.8009C37.0943 11.4426 36.4837 10.9765 35.8729 10.869C35.3005 10.7616 34.9189 11.1558 34.3082 11.4426C34.4225 11.55 34.5372 11.7293 34.6897 11.9445C34.1554 11.622 33.7739 11.5144 33.0488 11.7652C32.5527 11.9084 31.5986 12.3028 30.8735 13.2707C30.4156 14.812 38.5825 13.0913 38.5825 13.0913L41.9411 12.3746Z" fill="#F0EFEF"/>
<path d="M49.1155 12.9483C49.1155 12.9483 49.1155 12.5539 49.0773 12.1956C49.0773 12.124 48.7721 11.9447 48.7721 11.8731L48.6958 11.8013C48.6958 11.8013 49.3064 11.4787 49.7643 11.658C50.2603 11.8013 50.5274 12.4107 50.5274 12.4107C51.4052 12.124 51.4815 12.4466 51.9014 12.8766C52.8174 12.6973 52.9317 13.0199 53.5042 13.8086C53.5042 13.8086 52.8174 13.7011 51.4817 13.916C50.184 14.0951 49.1155 12.9124 49.1155 12.9483Z" fill="#010101"/>
<path d="M48.9628 12.7687C48.9628 12.7687 49.1917 12.5894 49.1153 12.5535C49.535 12.3385 50.1075 12.0877 50.3747 12.7687C51.2525 12.4819 51.367 12.8762 51.7867 13.3065C52.8552 12.8405 52.9314 13.4138 53.0079 13.6648C52.6645 13.6648 52.1685 13.7007 51.4815 13.7723C50.184 13.9516 48.9245 12.7328 48.9628 12.7687Z" fill="#F0EFEF"/>
<path d="M35.9876 11.8726C35.9876 11.8726 38.1629 12.5893 39.9947 12.4818C41.8265 12.3385 44.9558 12.1951 46.635 13.1271C46.635 13.1271 48.3523 12.5534 49.9552 12.9478C51.5583 13.3419 54.4966 15.9228 53.619 18.6469C53.5426 18.8262 53.0465 19.1129 52.4741 19.2922C52.4741 19.2922 52.7795 20.5108 52.2451 21.5144C51.7108 22.4822 50.5278 24.3462 50.4896 26.9268C50.4515 27.3569 50.3753 28.253 50.2988 28.6831C47.322 28.5757 42.7425 27.536 38.2393 27.6078C38.2774 27.142 38.3156 26.8552 38.3538 26.3892H38.4681C38.2391 25.2063 38.1629 24.5969 37.9337 23.7009C36.4836 22.8407 34.9569 21.8371 33.6597 19.9373C32.4002 18.0375 35.9876 11.8726 35.9876 11.8726ZM50.7185 31.2282C50.7185 31.2282 53.0847 39.1856 50.2988 42.519C50.2988 42.519 50.7185 44.0602 49.7645 45.7091C49.6118 46.4259 49.4208 47.0712 49.3066 47.7879C48.8104 50.7629 47.9707 52.0174 47.7417 56.7846L45.4518 56.7489C45.4518 56.7489 45.1846 53.3079 44.3833 51.4798C43.9255 50.4405 42.1316 49.0424 42.2082 47.6447C42.2844 46.5693 42.5134 45.6732 44.4599 44.2394C44.6124 42.1606 42.3989 40.189 42.7425 32.4468L50.7185 31.2282Z" fill="#010101"/>
<path d="M50.0317 30.9054C50.6423 34.5615 52.0543 39.9739 49.4973 42.6262C49.6482 43.2988 49.6611 43.9922 49.5354 44.6693C49.4591 45.0994 49.3064 45.5653 49.1157 46.067C48.734 46.9274 48.5813 48.1819 48.4669 48.9345C47.9707 51.9096 47.9707 52.0532 47.7418 56.8203L45.4518 56.7844C45.4518 56.7844 45.1847 53.3434 44.3833 51.5156C43.9256 50.4761 42.9714 49.58 42.8951 48.1821C42.8189 47.1069 43.6202 44.9563 45.5285 45.0279C45.414 40.6909 43.2768 41.551 42.7044 32.5184L50.0317 30.9054ZM35.9877 11.8726C35.9877 11.8726 36.8272 12.1235 37.7431 12.1951C38.6591 12.2667 39.6513 12.1951 40.5289 12.1592C42.3608 12.016 44.9559 11.8367 46.6733 12.7686C46.6733 12.7686 47.6273 12.4818 48.6578 12.5534C49.1157 12.5893 49.5738 12.9478 50.108 13.0912C51.7871 13.4854 53.39 16.1019 52.6647 18.4677C52.5884 18.647 52.0541 18.4677 51.4435 18.647C51.5578 19.1489 51.6344 20.2959 51.0236 21.5146C50.3749 22.7334 49.5354 24.3104 49.6879 27.3214C45.6808 27.142 43.8872 26.8913 39.9181 26.712C39.5747 25.3856 39.3456 24.0595 39.3075 23.3785C39.8419 23.1275 40.1469 22.9127 40.567 22.4824C39.4222 22.6617 38.9641 22.5899 38.277 22.2315C37.5902 21.873 36.369 20.726 35.7583 19.9734C35.6821 19.9016 35.2624 21.0843 34.3084 21.1204C33.9647 20.6544 35.4149 19.3281 35.1477 18.8264C34.1939 16.9982 35.9877 11.8726 35.9877 11.8726Z" fill="#F0EFEF"/>
<path d="M50.3368 27.9304C50.3368 27.9304 50.4131 29.2209 50.4131 29.5434C50.4131 29.9019 50.7185 30.9771 50.7565 31.479C50.3368 32.16 48.505 33.7014 45.1848 34.2749C41.9028 34.92 37.5522 30.0812 37.5522 30.0812C37.6667 29.6152 38.0484 28.253 38.3156 27.5363C38.3538 27.4646 38.43 27.2853 38.43 27.2137C38.7737 26.7477 50.3368 27.9304 50.3368 27.9304Z" fill="#010101"/>
<path d="M49.4973 28.0381C49.4973 28.9342 49.6499 29.5795 49.7645 30.153C49.9552 31.1925 50.2605 31.8735 50.2605 32.5545C50.2605 34.6333 47.3601 34.2748 44.9175 34.3466C41.6355 34.9919 38.8496 30.153 38.8496 30.153C39.0786 29.3285 39.2313 28.3967 39.5747 27.608C39.6127 27.1779 39.6892 26.6403 39.7272 26.3894C44.3831 26.3894 47.6651 26.6403 49.5734 26.8193C49.6499 27.2137 49.5736 27.8947 49.4973 28.0381Z" fill="#F0EFEF"/>
<path d="M45.8338 32.6621C45.8338 32.6621 43.8112 28.4325 37.7431 29.6872C36.2932 33.5224 34.3467 37.9313 35.6061 42.6984C34.3467 44.3114 32.8965 45.2076 32.8965 48.1825C32.8965 51.1575 33.0492 51.6594 33.0492 51.6594L37.5142 51.8746C37.5142 51.8746 38.9644 50.1184 39.5367 48.2186C39.6894 47.6808 39.8421 46.7131 39.7277 45.602C39.8802 45.387 40.529 44.8853 40.6055 43.9174C40.6055 43.9174 42.7807 42.8422 44.0402 40.2256C45.2233 37.8595 44.9179 35.8164 45.8338 32.6621Z" fill="#010101"/>
<path d="M45.8334 32.6618C45.7191 32.2676 44.1925 28.3965 38.5443 29.5433C35.2242 37.8592 36.4454 41.3002 36.9414 42.8055C34.6897 45.4937 33.6594 46.0672 34.1175 51.5155H37.0943C38.468 49.4725 38.7734 48.7196 38.8497 46.0315C38.8497 45.9239 38.43 46.2465 38.1246 46.6049C38.3537 45.4938 39.0024 45.2788 39.4985 44.5978C39.7274 44.3109 39.9182 43.8809 39.9182 43.3074C42.5896 41.6228 43.5818 39.5079 44.1542 37.3214C44.6123 35.8161 45.1465 33.3428 45.8334 32.6618Z" fill="#F0EFEF"/>
<path d="M36.4072 26.8914C36.4072 26.8914 37.4377 26.9271 38.3537 27.2139C39.2315 27.5006 39.2315 27.6797 39.5749 28.0384C39.9183 28.397 40.7579 28.9344 40.6054 29.472C40.5289 29.7589 40.3382 29.8305 40.071 30.0814C39.9565 30.1889 39.1168 31.0491 38.9261 31.1566C38.8116 31.2283 38.6589 31.3359 38.5444 31.4076L37.972 31.766C37.5904 31.9453 37.3232 32.0529 36.9035 32.017C36.9035 32.017 35.9494 31.9811 35.3387 31.3718C35.3387 31.3718 35.2624 31.085 35.4151 30.9418C35.4151 30.9418 34.6136 30.2965 34.3846 29.8664C34.1555 29.4365 34.1555 28.8271 34.3084 28.5045C34.3846 28.1816 35.8728 27.2855 36.4072 26.8914ZM37.3614 61.7672L37.2469 62.6635C37.2469 62.6635 36.9035 63.0576 34.3466 63.0219C31.7514 62.986 31.0646 62.2334 30.8356 61.839L30.6831 60.9071C30.6831 60.9071 31.1792 60.226 31.2937 60.226C32.1333 60.2977 34.9956 61.373 36.9801 61.6597C37.1705 61.6597 37.2085 61.7313 37.3614 61.7672ZM42.8949 59.9392C42.8949 60.3334 42.8567 60.3334 42.8567 60.7277C43.3146 61.0503 44.4598 61.2296 46.6348 61.1935C49.8024 61.1219 52.7409 62.0898 56.3281 61.5161L56.3664 60.871L56.0229 60.8353L43.3146 59.8674L42.8949 59.9392Z" fill="#010101"/>
<path d="M45.6809 61.1937H46.6349C48.6959 61.1221 50.6422 61.5522 52.741 61.6597C53.8478 61.6238 55.2217 61.3728 55.1072 60.6202L44.2689 59.7599C43.6201 60.4409 44.1161 61.0144 45.6809 61.1937ZM33.2397 46.1035C33.5832 46.3186 35.9111 47.609 39.6893 47.4297C39.6128 48.1107 39.6511 49.437 37.9719 51.7667C37.1324 52.9137 36.4071 54.9211 36.2546 57.466C36.2928 58.0395 36.6362 58.5412 36.1783 59.2941C36.3308 59.7599 36.9414 60.6918 37.2468 61.2653C37.552 61.839 37.7047 62.4841 35.682 62.52C33.6212 62.5557 30.301 62.3407 30.7591 60.8354C30.9882 60.0469 31.6369 59.2224 31.7133 58.8997C31.7896 58.5771 31.7896 57.6095 32.4382 56.9642C33.0108 55.172 32.8199 53.4515 32.7056 51.8385C32.5147 50.1538 32.4764 47.4656 33.2397 46.1035ZM36.7889 16.8909C39.4985 13.4856 37.2086 10.7617 32.8583 11.586C31.1027 11.9085 29.3473 13.0557 29.2327 15.1345C28.6603 15.2061 27.3628 15.2777 26.714 17.5001C26.218 19.2206 25.9508 19.5432 25.0729 20.4033C24.5005 21.0127 25.1111 22.2673 25.5308 23.1635C26.9429 26.246 31.2934 26.5327 34.232 28.8626C35.2243 28.6117 36.2546 27.5724 36.56 26.8913C34.0793 24.1312 34.6135 23.056 33.6212 21.6223C34.6899 21.2637 37.1324 19.8659 36.7889 16.8909Z" fill="#010101"/>
<path d="M36.255 16.6759C36.4075 16.4607 36.6747 15.9949 36.7894 15.8156C36.8276 15.7797 37.2473 16.4607 37.2855 16.425C38.3158 14.8477 38.583 12.5537 37.3998 12.3387C37.1326 12.3028 36.6367 12.1954 36.2168 12.0518C35.4537 11.8009 34.7668 11.8009 33.5454 12.0161C31.8662 12.3028 30.1871 13.4498 30.1871 15.0986C30.1871 15.2062 31.3699 15.5287 31.7136 16.855C31.141 16.1022 30.1487 15.2778 28.9657 15.9947C27.7063 16.7473 28.3551 18.4678 26.676 20.26C26.1034 20.8694 26.1798 21.5863 26.7903 23.02C27.7825 25.2782 32.4767 26.4969 35.0336 28.6474C35.6442 28.3965 36.0639 27.823 36.3693 27.3929C34.6519 25.7083 33.9649 24.1311 33.4689 22.9841C32.8583 21.6579 32.1713 20.9053 30.8356 19.9013C31.5226 20.1523 32.057 20.4032 32.362 20.6183C32.7054 20.8333 33.2016 20.8692 33.6597 20.7258C35.301 20.1885 36.1787 18.0378 36.255 16.6759Z" fill="#F0EFEF"/>
<path d="M52.8554 17.249C52.7409 18.6111 51.6724 17.93 51.1 17.6791C49.9551 17.2131 48.8101 16.8906 47.4744 16.8906C46.1387 16.8906 44.4214 16.9981 42.9331 17.3565C40.8724 17.8941 40.2616 17.8584 39.3457 17.4282C38.4299 16.9622 36.8272 15.8152 36.8272 15.8152C36.8272 15.8152 36.789 16.1736 37.1707 16.6396C37.6666 17.2131 38.7735 17.93 40.2618 18.3959C40.9868 18.6111 41.5594 18.4675 42.2082 18.3242C45.6047 17.5357 49.1919 17.3923 52.2068 19.1128C52.3595 19.1844 52.8938 18.9694 53.1228 18.6468C53.4278 18.181 52.8554 17.249 52.8554 17.249Z" fill="#010101"/>
<path d="M35.4917 30.9058C35.7969 31.0851 36.1786 31.1926 36.5983 31.5152C36.5983 31.5152 36.2548 31.5152 36.1023 31.3719C35.9114 31.2644 35.5297 30.9418 35.4917 30.9058Z" fill="#0A1825"/>
<path d="M46.521 2.48144C46.4066 2.15888 45.5668 1.58521 43.6207 1.58521C41.5217 1.58521 40.9111 2.1946 40.873 2.51717C40.873 2.62469 40.7204 3.77186 40.6821 4.23767C40.6821 4.23767 40.6821 4.81117 40.7202 5.67133C40.7584 6.24483 40.9111 6.5674 40.9873 7.32021C41.0636 8.10858 41.2927 8.61046 41.7124 9.25576C41.9033 9.3631 42.0559 9.4708 42.2468 9.5067C43.0101 9.64994 44.3458 9.68584 45.0709 9.5067C45.4906 9.39918 46.0249 8.71816 46.1394 8.10876C46.2919 7.35611 46.4446 6.81833 46.4828 6.35253C46.5591 5.88673 46.5973 4.84707 46.6353 4.56023C46.75 3.77186 46.5591 2.55306 46.521 2.48144Z" fill="#F0EFEF"/>
<path d="M42.5132 46.7844C42.5132 46.7844 44.5359 47.6089 49.5353 46.8919C49.5353 46.8919 48.1233 53.5589 48.7722 56.8922C48.7722 56.8922 49.4208 57.7526 54.2294 59.4013C54.2294 59.4013 56.3665 59.9031 56.2902 60.9069C56.2902 60.9069 56.3665 61.122 53.7715 61.0502C51.1766 60.9784 48.7339 60.5483 47.0166 60.5483C45.2992 60.5483 43.4674 60.6199 43.1622 60.1541C42.8188 59.724 43.2385 58.6127 43.7346 57.9674C44.2691 57.2866 44.1162 56.7845 44.0782 55.5661C43.9634 52.376 41.3682 49.0784 42.5132 46.7844Z" fill="#010101"/>
<path d="M42.0937 47.3937C41.8265 47.7522 42.1318 49.114 42.5134 50.4403C42.8951 51.7665 43.7348 52.5552 43.9256 54.7415C44.1163 56.8921 44.1545 57.1789 43.5057 58.4333C42.8568 59.6876 42.6661 60.8348 44.9176 60.8707C47.1692 60.9066 48.3906 60.8348 50.6803 61.1575C52.9702 61.4801 53.7716 61.5876 55.031 61.4085C56.2904 61.2293 56.5574 60.8348 56.0233 60.4765C55.4889 60.1181 53.2754 59.7239 52.3214 59.0068C51.4054 58.3617 48.8104 57.2863 48.7724 56.9996C48.6579 56.0317 48.6197 52.5191 48.8104 51.3721C49.0014 50.2249 49.2683 48.5762 49.3448 48.1462C49.4212 47.7161 49.8027 47.2858 49.1539 47.4292C48.5052 47.5725 46.0628 47.8952 44.231 47.7877C42.3991 47.6804 42.2084 47.286 42.0937 47.3937Z" fill="#F0EFEF"/>
<path opacity="0.3" d="M43.3912 58.4695C44.0399 58.7561 44.9941 58.9713 45.7192 58.9713C45.7192 58.9713 45.4518 60.1542 45.8717 60.871C46.2914 61.5879 42.8187 61.1578 42.8187 61.1578L42.6661 58.6129L43.3912 58.4695ZM53.5044 61.552C54.115 61.3727 54.5349 60.7276 54.0388 60.1183C53.5044 59.5089 53.0465 59.4014 53.7334 59.3657C54.4204 59.3298 56.9391 60.7635 56.9391 60.7635L55.6415 61.8746L53.5044 61.552ZM41.9791 48.7916C42.8569 49.0784 44.1926 49.15 45.3375 49.1141C46.4823 49.0784 48.1997 48.9348 49.3066 48.5765C50.4131 48.2181 49.9552 48.9707 49.9552 48.9707L49.3446 49.5085C49.3446 49.5085 47.8945 50.0461 45.5285 50.0104C42.7426 49.9745 41.9028 49.6878 41.9028 49.6878L41.9791 48.7916ZM42.0553 50.5839C42.9333 50.8707 44.2688 50.9423 45.4138 50.9064C46.5586 50.8707 48.0852 50.8707 49.1919 50.4763C49.6498 50.3331 49.3829 50.9423 49.3829 50.9423L49.1919 51.2649C49.1919 51.2649 47.7035 51.7668 45.3756 51.7307C42.5897 51.695 42.0936 51.4798 42.0936 51.4798L42.0553 50.5839Z" fill="#010101"/>
<path d="M39.5371 25.4575C39.5371 25.7085 42.5139 27.1062 44.1548 27.3931C45.7959 27.6797 49.2306 27.3931 49.7648 27.2855L49.6883 27.7874C49.6883 27.7874 45.605 28.3609 42.4757 27.5724C39.3462 26.7838 39.6898 26.6045 39.6898 26.6045L39.5371 25.4575Z" fill="#010101"/>
<path d="M33.1636 56.0323C33.6215 56.2475 35.2626 56.6417 36.3311 56.4266C36.4836 56.3907 36.3311 53.9533 36.751 52.8422C37.3616 51.3009 38.3538 50.0463 38.8116 47.3224C37.2087 47.179 35.377 46.7846 34.4228 46.4978C33.2018 50.0106 33.6217 53.0214 33.1636 56.0323ZM35.7207 58.2906C35.9878 58.3622 36.1786 58.6488 36.255 58.4699C36.4075 58.1471 35.9878 57.5379 35.9496 57.1078V57.0719C35.6062 56.7853 33.2782 56.7494 33.4309 56.8926C33.1637 57.3586 32.7441 57.287 32.5915 58.2189C32.5153 58.6847 33.1259 58.2906 33.6981 58.2547C32.6678 58.8998 31.4848 59.7244 31.2939 60.4411C31.0649 61.4447 31.4466 61.7316 32.5915 62.2693C33.5838 62.4844 34.7668 62.5203 35.6826 62.4844C36.7131 62.3051 36.904 61.8393 36.5986 61.194C36.1404 60.2261 35.8351 58.9716 35.7207 58.2906Z" fill="#F0EFEF"/>
<path d="M36.1402 11.7292C37.3997 12.4103 39.1552 12.2311 39.8039 12.1952C39.9566 12.1952 41.4832 11.9443 41.5595 11.98C41.712 12.0159 41.712 12.1234 41.712 12.1234C41.712 12.1234 41.1396 12.4101 39.8421 12.4817C38.6209 12.5533 37.1707 12.4817 36.3694 12.1234C35.4151 11.7292 36.1402 11.7292 36.1402 11.7292ZM49.1157 12.4103C49.3447 12.5535 50.8331 13.0913 51.4819 13.7364C52.0543 14.3101 51.7491 14.2742 51.6344 14.1308C51.4819 13.9515 50.2987 13.1988 49.8408 13.0197C49.3829 12.8405 48.8103 12.5178 48.8103 12.4462C48.8103 12.3745 49.1157 12.4103 49.1157 12.4103Z" fill="#010101"/>
<path d="M35.949 27.2854C37.0558 27.2138 38.2007 27.4647 38.9258 28.1815C39.3075 28.5399 39.9181 28.9341 39.8418 29.2926C39.8418 29.4001 39.6127 29.6869 39.4221 29.902C39.3077 30.0452 38.9642 30.3678 38.8496 30.4755C38.6971 30.583 38.1627 30.9774 38.0482 31.049C37.9337 31.1208 37.781 31.3001 37.6666 31.3358C37.2851 31.5151 36.8652 31.3717 36.4836 31.1926C36.1021 31.0133 36.56 30.9774 36.1401 30.6907C35.1098 30.0097 34.5373 29.5435 34.9571 28.2174C34.9952 27.9664 35.4149 27.6796 35.949 27.2854Z" fill="#F0EFEF"/>
<path opacity="0.4" d="M26.2181 19.0773C22.7834 20.3677 14.0439 24.454 11.5635 25.7085C13.6243 26.9272 14.5783 29.8663 14.8837 32.8413C14.9217 33.1282 14.96 33.3791 14.9982 33.6658C15.0362 33.9167 15.0744 34.0958 15.1125 34.2035C15.1125 34.2394 15.1125 34.3111 15.1507 34.3468C17.4024 28.5761 25.4546 22.4826 25.76 22.0166C25.9125 21.8016 25.5691 20.8696 26.1034 19.9737C26.7905 18.8264 28.1264 18.3245 26.2181 19.0773ZM34.385 46.1394C36.1404 42.8418 36.1786 39.6874 36.1404 35.9955C36.1404 34.4541 37.3234 32.2676 36.713 32.877C34.423 35.2784 28.6605 39.795 24.5008 40.0457C30.3397 39.8666 32.6294 42.6266 34.385 46.1394Z" fill="#010101"/>
<path d="M8.20459 28.755C10.3799 27.2855 21.638 21.6582 24.3476 20.8694C27.057 20.045 26.2175 19.0771 26.2175 19.0771C26.2175 19.0771 15.2265 23.5217 8.6625 27.3571" fill="#010101"/>
<path opacity="0.4" d="M40.2618 18.3963C39.384 18.0737 38.6972 19.0416 38.9261 19.9736C39.1553 20.9055 41.2161 21.9448 41.1014 25.3501C41.0251 28.146 40.3763 29.2928 40.3763 29.2928L38.9261 27.5725C38.9261 27.5725 38.6972 23.7012 38.201 23.1277C37.7051 22.5542 36.1403 21.5148 35.5296 20.9772C34.919 20.4394 36.2165 19.7226 36.1403 18.7189C36.064 17.7512 36.7891 15.8156 36.7891 15.8156L40.2618 18.3963ZM45.5666 33.6656C45.4903 36.3538 46.1392 40.3326 46.4061 42.2324C46.6733 44.1321 47.0167 44.2755 46.4061 45.1358C45.7955 45.9603 44.9942 47.3223 44.9942 47.3223L42.3608 47.1071C42.3608 47.1071 44.4598 44.598 44.5741 44.1321C44.6886 43.6662 43.5056 40.1177 43.5056 40.1177L45.5666 33.6656ZM40.491 8.57517C41.0253 9.6861 41.674 10.188 42.7043 10.5107C43.3149 10.7258 45.7191 11.0126 46.6733 10.0088C47.093 9.54285 46.8258 8.28833 46.8258 8.28833L44.6506 9.93704L41.712 9.43533L41.3686 8.61089L40.491 8.57517Z" fill="#010101"/>
<path d="M40.7198 11.0483C41.712 11.6577 44.1927 12.2312 44.8796 12.3388C45.5664 12.482 46.6732 11.6577 47.2075 11.4427C47.7801 11.1918 48.7724 11.0483 49.9171 12.0162C50.0316 12.1237 49.65 12.5897 49.65 12.5897C49.6117 12.5538 49.3828 12.5538 49.0774 12.4104C48.7722 12.2671 48.505 12.1594 48.0471 12.1953C46.1388 12.4104 45.8336 13.0198 44.1545 12.6611C42.4753 12.3025 42.0555 12.016 40.4146 12.0876" fill="#8AC640"/>
<path d="M40.7198 11.0483C41.712 11.6577 44.1927 12.2312 44.8796 12.3388C45.5664 12.482 46.6732 11.6577 47.2075 11.4427C47.7801 11.1918 48.7724 11.0483 49.9171 12.0162C50.0316 12.1237 49.65 12.5897 49.65 12.5897C49.6117 12.5538 49.3828 12.5538 49.0774 12.4104C48.7722 12.2671 48.505 12.1594 48.0471 12.1953C46.1388 12.4104 45.8336 13.0198 44.1545 12.6611C42.4753 12.3025 42.0555 12.016 40.4146 12.0876" stroke="#010101" stroke-miterlimit="10" stroke-linejoin="round"/>
<path d="M40.3767 11.1558C41.6361 11.6576 44.0785 12.1952 44.7654 12.3387C45.4523 12.4821 46.559 11.8368 47.0934 11.5142C48.0476 10.9407 49.2686 11.4067 49.8412 12.0161C50.2227 12.4103 50.3756 12.6612 50.3756 12.7687C50.3756 12.912 49.9177 12.7687 49.9177 12.7687C49.6505 12.6612 49.3451 12.6255 49.1163 12.4819C48.8109 12.3387 48.5055 12.1236 48.0478 12.1593C46.1395 12.3746 45.7579 12.9838 44.117 12.6253C42.476 12.2669 42.0562 11.9443 40.3008 12.0516" fill="#F0EFEF"/>
<path d="M34.4609 44.6336C34.3847 44.562 34.5372 44.4904 34.4609 44.4904C33.965 44.4904 33.2779 44.1319 32.8961 43.63C31.2552 41.4078 28.8508 39.9382 24.5003 40.0458C17.9743 40.189 15.3792 37.6801 14.8832 32.8771C14.616 30.2605 13.8527 27.7156 12.2881 26.2817L11.3721 26.8195C13.1275 28.2532 13.7 30.5831 14.0817 33.7731C14.6923 38.5762 18.8139 40.7986 23.6225 40.8702C28.6218 40.9418 30.4154 41.9097 32.2853 44.2755C32.8959 45.0281 33.583 45.2791 34.1171 45.3866L34.4609 44.6336Z" fill="#010101"/>
<path opacity="0.4" d="M52.1691 21.5864C52.2836 22.124 52.5888 23.1635 53.1994 23.6652C53.4668 23.9162 53.5048 23.9878 53.2759 23.9878C53.0467 23.9878 51.3676 23.9162 51.3676 23.9162L50.9097 23.1635L52.1691 21.5864Z" fill="#010101"/>
</g>
<defs>
<clipPath id="clip0_36_174">
<rect width="59" height="63.3401" fill="white"/>
</clipPath>
</defs>
</svg>
