<svg width="51" height="53" viewBox="0 0 51 53" fill="none" xmlns="http://www.w3.org/2000/svg">
<path d="M0.151367 0C17.114 0 34.0424 0 51.0051 0C51.0051 17.4486 51.0051 34.8971 51.0051 52.3104C34.0767 52.3104 17.114 52.3104 0.151367 52.3104C0.151367 34.8265 0.151367 17.4132 0.151367 0ZM45.6485 27.6916C44.6184 25.7843 43.2105 24.4774 41.1846 24.0183C39.7424 23.665 38.3002 23.665 36.8581 23.9829C32.1882 24.9719 30.1966 30.7646 33.2183 34.6146C34.2828 35.9567 35.6906 36.7691 37.1671 37.4756C38.4719 38.1113 39.8111 38.7118 41.1159 39.3829C42.0087 39.842 42.3864 40.6898 42.2834 41.714C42.1803 42.7383 41.4936 43.3035 40.6351 43.6214C38.7123 44.3278 36.4803 43.6921 35.1755 42.032C34.9008 41.6787 34.6261 41.2902 34.3514 40.9016C33.0466 41.6787 31.7761 42.4205 30.5057 43.1975C31.2954 44.787 32.3942 46.0586 33.9051 46.9063C36.4803 48.3544 39.193 48.5663 41.9744 47.8599C43.7943 47.4008 45.3394 46.4471 46.3008 44.7164C48.0864 41.4315 47.0563 37.3343 43.8972 35.321C42.4894 34.4379 40.9098 33.8375 39.4334 33.0604C38.7123 32.6719 37.9569 32.3186 37.3388 31.8242C36.24 30.9058 36.446 29.0691 37.6822 28.3628C38.884 27.6563 40.5665 28.0802 41.4936 29.3164C41.6996 29.5636 41.837 29.8462 42.043 30.1288C43.2105 29.3164 44.4123 28.504 45.6485 27.6916ZM13.543 43.7274C14.2297 45.2462 15.2255 46.4471 16.6333 47.2241C18.4532 48.2485 20.4448 48.425 22.4707 48.1071C24.2906 47.8246 25.8015 46.9769 26.7972 45.2815C27.6213 43.8686 27.8616 42.3145 27.8616 40.6544C27.8616 35.2856 27.8616 29.9169 27.8616 24.548C27.8616 24.4068 27.8616 24.2302 27.8616 24.0536C26.2478 24.0536 24.7026 24.0536 23.0888 24.0536C23.0888 24.2655 23.0888 24.4421 23.0888 24.654C23.0888 29.9522 23.0888 35.215 23.0888 40.5132C23.0888 41.0077 23.0544 41.5375 22.9858 42.032C22.8484 42.8444 22.4364 43.4448 21.6466 43.6921C20.1701 44.1513 18.9682 43.6921 18.1098 42.3852C17.9038 42.032 17.6977 41.6787 17.4575 41.3255C16.1182 42.1379 14.8478 42.915 13.543 43.7274Z" fill="white"/>
</svg>
