<svg width="60" height="56" viewBox="0 0 60 56" fill="none" xmlns="http://www.w3.org/2000/svg">
<mask id="mask0_36_316" style="mask-type:luminance" maskUnits="userSpaceOnUse" x="0" y="0" width="60" height="56">
<path d="M59.8753 0H0.166992V55.7628H59.8753V0Z" fill="white"/>
</mask>
<g mask="url(#mask0_36_316)">
<path d="M8.02858 9.10791V46.7477C3.1524 41.7291 0.166992 35.1305 0.166992 27.8813C0.166992 20.6322 3.1524 14.0336 8.02858 9.10791Z" fill="white"/>
<path d="M11.2129 13.1973L28.4288 45.4467H11.2129V13.1973Z" fill="white"/>
<path d="M30.0213 41.8221L13.104 10.3162H46.9387L30.0213 41.8221Z" fill="white"/>
<path d="M30.0213 0C37.7833 0 44.8488 2.78814 50.123 7.3421H9.91943C15.1937 2.78814 22.2592 0 30.0213 0Z" fill="white"/>
<path d="M48.8292 45.4467H31.6133L48.8292 13.1973V45.4467Z" fill="white"/>
<path d="M50.123 48.4207C44.8488 52.9746 37.7833 55.7627 30.0213 55.7627C22.2592 55.7627 15.1937 52.9746 9.91943 48.4207H50.123Z" fill="white"/>
<path d="M52.0137 46.6549V9.10791C56.8898 14.0336 59.8753 20.6322 59.8753 27.8813C59.8753 35.1305 56.8898 41.7292 52.0137 46.6549Z" fill="white"/>
<path d="M11.2129 13.1973L28.4288 45.4467H11.2129V13.1973Z" fill="white"/>
<path d="M30.0213 41.8221L13.104 10.3162H46.9387L30.0213 41.8221Z" fill="white"/>
<path d="M31.6133 45.4467L48.8292 13.1973V45.4467H31.6133Z" fill="white"/>
<path d="M13.104 10.3162H46.9387L30.0213 41.8221L13.104 10.3162Z" fill="white"/>
</g>
</svg>
