<svg width="60" height="63" viewBox="0 0 60 63" fill="none" xmlns="http://www.w3.org/2000/svg">
<g clip-path="url(#clip0_36_183)">
<path d="M22.1793 57.6363C17.9232 56.4422 14.18 54.2437 10.9119 51.1733C9.88591 51.5334 8.84087 51.8935 7.77684 52.2347C7.28283 52.3863 6.78881 52.3294 6.2758 52.1399C5.36377 51.7987 4.81276 51.1354 4.41375 50.3204C3.86273 49.2401 3.15971 48.2545 2.60869 47.1742C2.11467 46.1697 1.39265 45.2978 0.97464 44.2554C0.765634 43.7437 0.214618 43.4025 0.214618 42.7581C-0.279397 41.9621 0.195617 41.2608 0.480625 40.5596C0.556627 40.3701 0.65163 40.1236 0.822636 40.0478C1.50665 39.7446 1.84866 39.0623 2.41868 38.6454C2.68469 38.4557 2.96971 38.2473 3.27371 38.0199C2.83669 35.8403 2.45668 33.6607 2.45668 31.4242C2.45668 29.2067 2.85569 27.065 3.27371 24.9422C2.53268 24.2599 1.84866 23.5965 1.12664 22.9712C0.385623 22.3267 -0.0513906 21.5307 0.0436122 20.6968C0.100614 20.2419 0.233618 19.7491 0.461625 19.3701C1.16464 18.2518 1.81066 17.0767 2.49468 15.9395C3.04571 15.0298 3.52072 14.0822 4.12874 13.1914C4.45175 12.7365 4.64175 12.2057 4.96476 11.732C5.59178 10.8411 6.84582 10.4052 7.87185 10.7085C8.78387 10.9739 9.63891 11.3718 10.5699 11.5424C10.6649 11.5613 10.7409 11.6941 10.8359 11.7888C14.1231 8.73736 17.8661 6.55776 22.1603 5.2879C22.3313 4.77618 22.3693 4.22653 22.5783 3.69585C22.7303 3.29783 22.6923 2.80505 22.7683 2.36914C22.9773 1.23195 23.6803 0.568592 24.6874 0.227436C25.0483 0.113718 25.4094 0 25.8464 0C28.5064 0.0379062 31.1665 0.0379062 33.8266 0C34.5866 0 35.2326 0.303249 35.8407 0.644404C36.3917 0.928701 36.6957 1.53519 36.8477 2.10379C37.1137 3.14621 37.2657 4.20758 37.4747 5.30686C41.7499 6.51986 45.493 8.69946 48.7611 11.7699C49.7872 11.4097 50.8321 11.0497 51.8962 10.7085C52.3902 10.5569 52.8842 10.6137 53.3973 10.8032C54.3093 11.1444 54.8602 11.8078 55.2593 12.6228C55.8103 13.703 56.5133 14.6887 57.0643 15.769C57.5583 16.7734 58.2803 17.6454 58.6984 18.6877C58.9074 19.1995 59.4584 19.5406 59.4584 20.185C59.9524 20.9811 59.4774 21.6823 59.1924 22.3836C59.1164 22.5731 59.0214 22.8195 58.8504 22.8954C58.1663 23.1986 57.8243 23.8809 57.2543 24.2978C56.9883 24.4874 56.7033 24.6959 56.3993 24.9233C56.8363 27.1029 57.2163 29.2825 57.2163 31.5189C57.2163 33.7365 56.8743 35.8782 56.3993 38.0009C57.1403 38.6833 57.8243 39.3465 58.5464 39.972C59.2874 40.6164 59.7244 41.4124 59.6294 42.2464C59.5724 42.7013 59.4584 43.1941 59.2114 43.5731C58.5274 44.6724 57.8814 45.8096 57.2163 46.9278C56.3803 48.3113 55.6963 49.8086 54.7273 51.1164C54.5562 51.8366 53.8722 51.8935 53.3782 52.1589C52.8462 52.4431 52.3142 52.3673 51.7252 52.1968C50.8512 51.9503 50.0152 51.5145 49.1031 51.4007C49.0081 51.3817 48.9321 51.2491 48.8371 51.1543C45.55 54.2437 41.8259 56.4422 37.4747 57.6742C37.2657 58.6976 37.0757 59.7591 36.8477 60.8014C36.6197 61.8249 35.9357 62.4693 34.9666 62.7726C34.6057 62.8863 34.2257 63 33.8076 63C31.1476 62.9621 28.4875 62.9621 25.8274 63C25.0674 63 24.4214 62.6968 23.8134 62.3556C23.2623 62.0713 22.9393 61.4648 22.8253 60.8962C22.6163 59.778 22.4073 58.7355 22.1793 57.6363ZM23.4143 40.9387C23.7943 40.7301 24.2314 40.5975 24.2503 40.1425C24.2883 39.4603 24.3834 38.7591 24.2314 38.1146C23.9654 37.0153 23.4903 35.954 23.2053 34.8546C23.0153 34.1535 22.5973 33.4901 22.6163 32.732C22.0083 31.2347 21.6282 29.6616 21.1153 28.1454C20.6973 26.8944 20.3933 25.6056 19.9372 24.3736C19.6902 23.6914 19.6332 22.9333 19.1772 22.3267C19.1392 22.2699 19.1202 22.232 19.1202 22.232C18.6072 21.8908 18.0752 22.0045 17.6192 22.0045C17.3532 22.2509 17.1252 22.4594 16.9161 22.6489C16.8972 23.2554 16.4601 23.7293 16.5361 24.3167C15.8711 25.7951 15.5861 27.3871 15.0351 28.9035C14.7501 29.6805 14.5791 30.4766 14.3511 31.2726C14.142 32.0686 13.686 32.7888 13.686 33.6417C12.964 35.2527 12.6029 36.9774 12.0709 38.6643C11.938 39.0812 11.862 39.4793 12.128 39.8772C12.204 39.9909 12.166 40.1616 12.166 40.1425C12.47 40.4648 12.698 40.6922 12.888 40.9197C13.2491 40.9197 13.6291 40.9197 14.028 40.9197C14.294 40.5785 14.56 40.2564 14.8071 39.9341C14.7501 38.8538 14.9781 38.1336 15.4721 36.9774C17.3341 36.9774 19.1962 36.9774 21.0582 36.9774C21.2102 37.5839 21.2862 38.1715 21.4953 38.7212C21.5902 38.9486 21.6853 39.176 21.6473 39.4035C21.5902 40.1046 21.8183 40.6543 22.6163 40.9197C22.8063 40.9387 23.0913 40.9387 23.4143 40.9387ZM27.8604 40.9387C28.3735 40.9008 28.9625 41.0524 29.3805 40.6354C29.5325 40.4459 29.6655 40.2564 29.8555 39.9909C29.8555 38.0957 29.8555 36.1056 29.8555 34.1156C31.2425 34.1156 32.6106 34.0586 33.9597 34.1344C34.7766 34.1724 35.4417 33.926 36.0877 33.528C36.3917 33.3384 36.6577 33.0541 36.9237 32.7888C37.6267 32.1065 37.9687 31.2726 37.9878 30.287C37.9878 28.7328 37.9878 27.1976 37.9878 25.6435C37.9878 25.4161 37.9307 25.1697 37.8738 24.9422C37.6647 24.1272 37.2277 23.5207 36.6387 22.9901C35.9547 22.3646 35.1566 21.9855 34.2066 21.9855C32.0785 21.9855 29.9695 21.9855 27.8224 21.9855C27.6135 22.213 27.4044 22.4404 27.1575 22.6678C27.1575 28.5054 27.1575 34.3809 27.1575 40.2753C27.4044 40.4838 27.6324 40.7112 27.8604 40.9387ZM41.5408 40.9387C42.8519 40.9387 44.1819 40.9387 45.493 40.9387C45.7209 40.7112 45.9489 40.4838 46.1769 40.2753C46.1769 39.9151 46.1769 39.574 46.1769 39.2139C46.1769 39.176 46.1769 39.157 46.1769 39.1381C45.892 38.6074 45.4549 38.2852 44.8849 38.2283C44.8849 33.6986 44.8849 29.1877 44.8849 24.7717C45.303 24.5632 45.664 24.3736 46.082 24.1462C46.1391 23.6535 46.1769 23.1417 46.2151 22.7816C45.9109 22.4404 45.702 22.1941 45.5309 22.0045C44.1629 22.0045 42.833 22.0045 41.6548 22.0045C41.3319 22.2888 41.1039 22.4973 40.8188 22.7626C40.8758 23.2175 40.9518 23.7293 41.0088 24.1651C41.4648 24.3925 41.8259 24.5822 42.1488 24.7527C42.1488 29.2635 42.1488 33.7744 42.1488 38.2473C41.9588 38.2852 41.7499 38.2473 41.6739 38.342C41.4079 38.6074 40.9519 38.6833 40.8568 39.1191C40.8568 39.4982 40.8568 39.8772 40.8568 40.2564C41.0848 40.4838 41.3128 40.7112 41.5408 40.9387Z" fill="white"/>
<path d="M20.0513 34.0774C18.9303 34.1153 17.7522 34.1343 16.5742 34.1722C16.5362 34.1722 16.4792 34.248 16.3652 34.3427C16.3842 33.1676 17.0492 32.22 17.1252 31.1397C17.6952 30.192 17.7522 29.0738 18.1323 28.0125C18.2463 28.1262 18.4172 28.2399 18.4172 28.3346C18.4363 29.1496 18.9112 29.8509 19.0632 30.6279C19.1772 31.1587 19.4812 31.6703 19.5572 32.201C19.6332 32.8834 20.0893 33.3951 20.0513 34.0774Z" fill="white"/>
<path d="M35.3466 30.401C35.2137 30.6095 35.0997 30.818 34.9477 31.0075C34.6817 31.3107 34.3397 31.4814 33.9026 31.4624C32.5726 31.4435 31.2425 31.4624 29.8745 31.4624C29.8745 29.207 29.8745 26.9516 29.8745 24.6393C31.2616 24.6393 32.6866 24.6204 34.0926 24.6393C34.7577 24.6583 35.3277 25.3406 35.3466 26.0607C35.3466 27.2548 35.3466 28.4489 35.3466 29.6429C35.3466 29.9083 35.3466 30.1546 35.3466 30.401Z" fill="white"/>
</g>
<defs>
<clipPath id="clip0_36_183">
<rect width="60" height="63" fill="white"/>
</clipPath>
</defs>
</svg>

