<svg width="61" height="62" viewBox="0 0 61 62" fill="none" xmlns="http://www.w3.org/2000/svg">
<g clip-path="url(#clip0_36_242)">
<path fill-rule="evenodd" clip-rule="evenodd" d="M59.5145 16.0632L54.1824 24.1585L48.8503 16.0632H51.7575C51.5359 10.0484 46.9599 5.23647 41.367 5.23647C36.6476 5.23647 32.6453 8.67555 31.3807 13.3601C29.8424 12.8222 28.2518 12.4826 26.6353 12.3269C26.8177 11.5768 27.0524 10.8267 27.3392 10.105C28.1084 8.13775 29.2035 6.36867 30.5985 4.85435C31.9934 3.34002 33.623 2.13704 35.4352 1.3162C37.3125 0.438731 39.3072 0 41.367 0C43.4269 0 45.4216 0.438731 47.2989 1.30204C49.111 2.13704 50.7407 3.32586 52.1356 4.84019C53.5305 6.35452 54.6257 8.12359 55.3949 10.0908C56.138 11.9873 56.5421 13.9969 56.5812 16.0632H59.5145Z" fill="white"/>
<path fill-rule="evenodd" clip-rule="evenodd" d="M52.0575 61.1391V57.6575H33.6753C33.8057 57.5868 33.9361 57.5301 34.0664 57.4594C36.0611 56.4262 37.8993 55.0817 39.542 53.44C39.7637 53.2136 39.9722 53.0013 40.1678 52.789C40.3894 52.5484 40.624 52.2936 40.8457 52.0247C41.1064 51.7134 41.3672 51.3878 41.6018 51.0624H52.0575V47.5808L60.7923 54.3599L52.0575 61.1391Z" fill="white"/>
<path fill-rule="evenodd" clip-rule="evenodd" d="M45.2783 35.9901C45.2783 39.0046 44.7307 41.9341 43.6617 44.6939C42.749 47.0432 41.4714 49.1944 39.8809 51.0767C39.6723 51.3173 39.4638 51.558 39.2551 51.7986C39.0596 52.0108 38.864 52.2089 38.6685 52.4213C37.1301 53.9639 35.4092 55.2235 33.5319 56.2C33.2711 56.3415 32.9974 56.4689 32.7236 56.5963C32.7106 56.5963 32.7106 56.6104 32.6975 56.6104C31.133 57.3322 29.4513 57.686 27.7434 57.686H0.626465V51.105H25.801C33.4145 51.105 39.6592 44.4958 39.7636 36.2307C39.7636 36.1598 39.7636 36.0891 39.7636 36.0184C39.7636 26.989 33.0104 19.6579 24.6927 19.6579C16.3752 19.6296 9.62199 26.9466 9.62199 35.9901H13.1159L6.87119 45.4723L0.626465 35.9901H4.12038C4.12038 32.9755 4.66794 30.0459 5.73698 27.2862C6.77994 24.6255 8.25311 22.2337 10.1435 20.1816C12.0338 18.1295 14.2371 16.5161 16.688 15.398C19.2302 14.2374 21.929 13.6431 24.7058 13.6431C25.2664 13.6431 25.8139 13.6714 26.3615 13.7139C27.9781 13.8553 29.5556 14.1951 31.094 14.7469C31.6415 14.9451 32.176 15.1574 32.7106 15.4121C35.1615 16.5443 37.3648 18.1436 39.2551 20.1958C41.1455 22.2479 42.6317 24.6397 43.6617 27.3004C44.7307 30.0459 45.2783 32.9755 45.2783 35.9901Z" fill="white"/>
</g>
<defs>
<clipPath id="clip0_36_242">
<rect width="61" height="61.1393" fill="white"/>
</clipPath>
</defs>
</svg>
