<svg width="51" height="58" viewBox="0 0 51 58" fill="none" xmlns="http://www.w3.org/2000/svg">
<path d="M25.8579 34.0935C24.8508 34.5437 23.7474 35.1304 21.5385 36.3099C20.701 36.7682 19.8258 37.2266 19.0114 37.6584C18.9548 37.6034 18.8962 37.5342 18.8397 37.4771C14.47 32.9344 6.38815 29.726 6.73153 23.6249C6.85925 21.4025 7.6444 15.5683 22.2525 8.48328C34.2748 2.71832 43.8412 4.3154 45.4931 7.85789C47.8674 12.9078 40.3655 22.3049 27.9496 23.6677C26.5754 23.9389 25.1562 23.9062 23.7968 23.5719C22.4375 23.2376 21.1727 22.6104 20.0959 21.7366C19.4385 21.0419 19.3401 21.0012 19.0972 21.1397C18.6973 21.3434 18.9548 21.9729 19.0972 22.3334C19.5708 23.1677 20.2115 23.9011 20.9815 24.4904C21.7515 25.0796 22.635 25.5126 23.5799 25.7639C28.4659 26.7914 33.5602 26.3004 38.1441 24.3603C45.669 21.5267 51.5441 13.6493 49.823 7.04509C48.0957 0.349191 36.6722 -1.85901 25.8642 1.87701C19.0957 4.0962 12.8422 7.58963 7.46015 12.1582C1.50553 17.5768 0.56334 22.2866 0.94859 24.2585C2.33465 31.2599 12.2548 35.8169 16.233 39.1924C16.0236 39.3044 15.8477 39.3961 15.6907 39.4837C13.7058 40.4431 6.139 44.2912 4.25253 48.3613C2.11062 52.9733 4.5959 56.2794 6.2374 56.7235C8.71114 57.3 11.3082 57.1105 13.6659 56.1814C16.0235 55.2523 18.0241 53.6301 19.3883 51.5412C20.5467 49.809 21.258 47.8302 21.4618 45.7732C21.6655 43.7161 21.3557 41.6416 20.5587 39.7261C21.0289 39.3611 21.5305 39.036 22.0578 38.7544C23.0712 38.1718 24.0364 37.5973 24.8927 37.1532C27.8248 35.817 31.0245 35.129 34.2622 35.1386C41.0586 35.9167 42.4007 40.0418 42.1431 41.7795C42.0226 42.396 41.7678 42.9802 41.3959 43.4929C41.0239 44.0055 40.5433 44.4347 39.9866 44.7516C39.5155 45.0429 39.3584 45.1407 39.4003 45.3484C39.4568 45.654 39.6851 45.6397 40.085 45.5847C41.1061 45.2708 42.0057 44.6636 42.6656 43.843C43.3255 43.0225 43.7149 42.0269 43.7825 40.987C43.9919 36.9129 39.9991 32.4435 32.9306 32.4842C30.8141 32.4878 28.7187 32.894 26.7624 33.68C26.4484 33.8063 26.1434 33.9421 25.8475 34.0874L25.8579 34.0935ZM15.7556 50.0623C13.4985 52.4518 10.3579 53.3542 9.00115 52.5903C7.53553 51.7754 8.1155 48.2411 10.8855 45.7131C12.5261 44.2749 14.2993 42.9868 16.1827 41.865C16.5114 41.6613 16.9972 41.3924 17.5813 41.0502C17.6818 40.9952 17.7384 40.9667 17.7384 40.9667L18.0817 40.763C18.5758 42.3745 18.6207 44.0848 18.212 45.7188C17.8033 47.3529 16.9555 48.8518 15.7556 50.0623Z" fill="white"/>
</svg>
