<svg width="57" height="56" viewBox="0 0 57 56" fill="none" xmlns="http://www.w3.org/2000/svg">
<g clip-path="url(#clip0_36_255)">
<path d="M55.8379 4.39288C55.4363 2.2843 53.8052 0.57735 51.7222 0.125511C51.6219 0.100409 51.5214 0.100409 51.396 0.0753065C51.3709 0.0753065 51.3457 0.0251022 51.3207 0H5.29569C5.27059 0.0251022 5.2455 0.0753065 5.19531 0.0753065C3.11239 0.426737 1.35571 2.08348 0.878894 4.19207C0.853799 4.26737 0.803609 4.36778 0.753418 4.46819V50.6311C0.778513 50.6813 0.828704 50.7064 0.828704 50.7566C1.33062 53.066 2.73595 54.4968 5.01964 55.0742C5.09493 55.0993 5.14512 55.1495 5.19531 55.1997H51.396C51.4462 55.1746 51.4713 55.1243 51.5214 55.0993C53.8052 54.5722 55.2104 53.1915 55.7877 50.9072C55.8128 50.8319 55.7877 50.7316 55.8128 50.6562C55.8128 50.6311 55.863 50.606 55.888 50.5809V4.5435C55.888 4.49329 55.8379 4.46818 55.8379 4.39288ZM32.7501 30.5996H32.474C30.3911 30.5996 28.2831 30.5996 26.2001 30.5996C26.0998 30.5996 25.9994 30.5996 25.899 30.5996C25.899 30.6247 25.8739 30.6247 25.8739 30.6497C25.8739 30.7502 25.8739 30.8506 25.8739 30.951V50.3048H20.3781V30.6247H13.4768V26.2318H32.725V30.5996H32.7501ZM51.2705 43.728C51.2203 44.5815 51.0948 45.4098 50.7435 46.2131C50.6431 46.4642 50.5678 46.69 50.4424 46.9411C49.9906 47.8949 49.2378 48.5727 48.3594 49.125C47.3556 49.7525 46.2514 50.1039 45.097 50.3299C43.8172 50.5809 42.5373 50.6562 41.2323 50.606C40.6049 50.5809 39.9776 50.5809 39.3501 50.5056C37.8695 50.3299 36.414 50.0036 35.0589 49.3509C34.9835 49.3258 34.8832 49.2003 34.8832 49.125C34.8832 47.4934 34.8832 45.8617 34.8832 44.23C34.8832 44.2049 34.8832 44.1798 34.8832 44.1297C35.2848 44.4058 35.6862 44.6819 36.0878 44.9078C37.0665 45.4852 38.1456 45.8868 39.2498 46.1378C40.2034 46.3637 41.1571 46.3888 42.1107 46.3387C42.8385 46.3136 43.5662 46.1378 44.2187 45.8115C44.7959 45.5102 45.2727 45.1086 45.3982 44.4309C45.5237 43.8284 45.4734 43.226 45.1221 42.6988C44.6202 41.9458 43.9175 41.4688 43.1396 41.0672C42.2612 40.6404 41.3829 40.2639 40.4795 39.8623C39.1494 39.2598 37.8444 38.6071 36.7654 37.603C35.887 36.7747 35.2345 35.7957 34.9334 34.6159C34.7577 33.913 34.7075 33.2102 34.7326 32.5073C34.7577 30.7753 35.3851 29.2942 36.6148 28.0643C37.6186 27.0602 38.8482 26.4577 40.2034 26.1062C41.132 25.8804 42.0604 25.7047 43.0141 25.6795C43.6917 25.6795 44.3693 25.6042 45.0218 25.6293C46.0507 25.6544 47.0545 25.7047 48.0583 25.9556C48.7108 26.1313 49.3883 26.3071 50.0408 26.4577C50.1663 26.4828 50.2165 26.5581 50.2165 26.7087C50.2165 28.2651 50.2165 29.8465 50.2165 31.4028C50.2165 31.4531 50.2165 31.5032 50.1914 31.5785C49.9906 31.4531 49.8149 31.3526 49.6392 31.2522C48.8362 30.8004 47.983 30.4991 47.1046 30.2733C46.1259 30.0473 45.1472 29.8967 44.1434 29.9218C43.4658 29.9469 42.7631 30.0473 42.1358 30.2733C41.3578 30.5493 40.7304 31.0012 40.4544 31.8295C40.2285 32.4823 40.4042 33.0344 40.8057 33.5616C41.3076 34.2142 41.9852 34.6661 42.7129 35.0176C43.6917 35.4945 44.6955 35.8961 45.6491 36.348C46.7534 36.8751 47.8575 37.4022 48.786 38.1804C49.5891 38.8582 50.3168 39.6112 50.7184 40.6153C50.9443 41.2178 51.1451 41.8453 51.1451 42.5231C51.2454 42.9248 51.2956 43.3263 51.2705 43.728Z" fill="white"/>
</g>
<defs>
<clipPath id="clip0_36_255">
<rect width="56.1046" height="55.1997" fill="white" transform="translate(0.0371094)"/>
</clipPath>
</defs>
</svg>
